<svg width="605" height="375" viewBox="0 0 605 375" fill="none" xmlns="http://www.w3.org/2000/svg">
<path d="M187.5 375C212.123 375 236.505 370.15 259.253 360.727C282.002 351.305 302.672 337.494 320.083 320.083C337.493 302.672 351.305 282.002 360.727 259.253C370.15 236.505 375 212.123 375 187.5C375 162.877 370.15 138.495 360.727 115.747C351.305 92.9983 337.494 72.3285 320.083 54.9175C302.672 37.5065 282.002 23.6954 259.253 14.2726C236.505 4.84985 212.123 2.12454e-05 187.5 2.23217e-05L187.5 187.5L187.5 375Z" fill="#FF7C50" fill-opacity="0.4"/>
<g clip-path="url(#clip0_42_2)">
<path d="M543.512 179.856C554.004 186.623 563.831 195.684 573.036 206.86V223.948C568.544 222.419 551.399 216.079 544.63 206.053C536.806 194.466 535.414 176.877 541.93 172.473C543.628 171.328 545.689 171.186 547.951 171.813C555.084 176.945 561.907 183.169 568.423 190.421C570.732 193.97 572.161 198.49 573.036 203.057V203.274C564.606 191.533 554.694 183.918 543.512 179.856Z" fill="#FF7C50"/>
<path d="M542.985 74.9009C553.476 81.6676 563.304 90.7286 572.509 101.905V105.807C571.629 105.507 570.268 105.027 568.592 104.368C561.063 95.4384 552.48 89.4258 542.985 85.9766C549.628 90.2592 556.007 95.4648 562.128 101.546C555.654 98.4288 548.083 93.8087 544.102 87.9122C543.681 87.2898 543.28 86.6622 542.9 86.0293C536.205 74.9114 535.762 62.7175 541.93 58.551C548.447 54.147 559.871 60.3864 567.695 71.9684C572.219 78.6718 573.49 89.0725 573.748 96.6409C573.331 97.1894 572.92 97.7485 572.509 98.3181C564.079 86.5778 554.167 78.962 542.985 74.9009Z" fill="#FF7C50"/>
<path d="M602.708 137.244V137.249C601.959 139.322 601.021 141.416 599.903 143.478C598.243 146.548 595.691 149.396 592.802 151.943C589.707 154.675 586.217 157.059 583.006 158.995C578.524 161.7 574.586 163.536 573.036 164.232V162.571C581.941 151.97 591.41 143.331 601.506 136.822C590.782 140.715 581.234 147.887 573.036 158.821V151.495C581.941 140.894 591.41 132.255 601.506 125.747C590.782 129.639 581.234 136.812 573.036 147.745V140.419C581.825 129.961 591.157 121.411 601.105 114.935C605.766 118.684 606.172 127.73 602.708 137.244Z" fill="#FF7C50"/>
<path d="M341.753 211.286C383.591 211.286 417.507 177.357 417.507 135.504C417.507 93.6515 383.591 59.723 341.753 59.723C299.916 59.723 266 93.6515 266 135.504C266 177.357 299.916 211.286 341.753 211.286Z" fill="#FF6884"/>
<path d="M579.097 257.003C585.469 262.372 587.864 270.013 584.447 274.069C581.031 278.125 573.098 277.059 566.725 271.687C564.15 269.576 562.117 266.879 560.798 263.821L534.089 240.73L545.187 228.423L570.34 252.493C573.577 253.275 576.58 254.821 579.097 257.003Z" fill="#FCB4B4"/>
<path d="M557.53 239.919L524.879 197.976L493.953 141.355L493.151 219.882L539.507 257.97L557.53 239.919Z" fill="#2F2E41"/>
<path d="M415.496 124.47L422.976 90.4486L447.977 91.6517L454.394 116.332L415.496 124.47Z" fill="#FCB4B4"/>
<path opacity="0.1" d="M415.496 124.47L422.976 90.4486L447.977 91.6517L454.394 116.332L415.496 124.47Z" fill="black"/>
<path d="M434.858 99.5773C450.316 99.5773 462.847 87.0415 462.847 71.5777C462.847 56.1139 450.316 43.578 434.858 43.578C419.4 43.578 406.868 56.1139 406.868 71.5777C406.868 87.0415 419.4 99.5773 434.858 99.5773Z" fill="#FCB4B4"/>
<path d="M422.338 82.3906C422.338 82.3906 419.514 82.3632 413.641 81.2707C407.768 80.1781 417.965 93.9074 417.965 93.9074C390.326 82.3622 399.171 53.0782 399.171 53.0782C371.12 47.7117 382.871 22.7663 382.871 22.7663C382.871 22.7663 392.117 4.91615 420.541 6.05203C448.965 7.18791 435.537 35.2324 435.537 35.2324C454.056 35.2675 456.14 51.9636 456.14 51.9636C456.14 51.9636 449.464 52.7973 437.331 55.8777C425.199 58.958 422.338 82.3906 422.338 82.3906Z" fill="#2F2E41"/>
<path d="M421.228 113.755L419.964 111.293C419.964 111.293 397.472 113.901 393.782 117.343C390.091 120.786 381.656 136.081 381.656 136.081L400.108 151.903L421.228 113.755Z" fill="#FFB6B6"/>
<path d="M449.14 113.157C449.14 113.157 466.011 108.655 475.501 118.149C484.991 127.642 496.062 145.047 496.062 145.047L495.535 158.76L469.174 146.048L449.14 113.157Z" fill="#FFB6B6"/>
<path d="M453.44 111.292C453.44 111.292 475.501 103.381 489.736 120.259C503.97 137.136 508.188 190.405 508.188 190.405C508.188 190.405 540.349 289.031 532.44 290.086C524.532 291.141 476.27 294.056 476.27 294.056L459.684 186.713L452.303 111.292L453.44 111.292Z" fill="#2F2E41"/>
<path d="M402.744 206.227L397.472 225.214L469.174 230.488C469.174 230.488 466.538 214.616 469.174 208.839L402.744 206.227Z" fill="#FCB4B4"/>
<path d="M443.34 329.642L446.504 375L486.319 373.945L484.991 328.06L443.34 329.642Z" fill="#FCB4B4"/>
<path d="M381.221 325.156L369.53 374.473L411.211 374.191L421.83 333.88L381.221 325.156Z" fill="#FCB4B4"/>
<path d="M452.303 111.292H419.964L393.782 146.102L399.581 217.303C399.581 217.303 412.762 213.611 431.214 213.611H470.756C470.756 213.611 464.956 195.151 472.337 187.768C479.718 180.384 474.446 146.102 474.446 146.102L452.303 111.292Z" fill="#FF7C50"/>
<path d="M394.836 219.413L365.312 326.478C365.312 326.478 408.786 343.953 435.026 338.907C461.266 333.862 497.117 332.279 497.117 332.279L471.81 223.632L394.836 219.413Z" fill="#2F2E41"/>
<path d="M463.109 258.585C469.48 263.954 471.876 271.595 468.459 275.651C465.043 279.707 457.11 278.641 450.737 273.269C448.161 271.158 446.129 268.461 444.809 265.403L418.1 242.312L429.199 230.005L454.351 254.075C457.589 254.857 460.592 256.404 463.109 258.585Z" fill="#FCB4B4"/>
<path d="M446.814 239.919L414.163 197.976L383.237 141.355L382.435 219.882L428.791 257.97L446.814 239.919Z" fill="#2F2E41"/>
<path d="M422.168 111.292C422.168 111.292 400.108 103.381 385.873 120.259C371.638 137.136 367.421 190.405 367.421 190.405C367.421 190.405 335.26 289.031 343.169 290.086C351.077 291.141 399.338 294.056 399.338 294.056L415.925 186.713L423.306 111.292L422.168 111.292Z" fill="#2F2E41"/>
<path d="M573.563 91.2507H572.509V274.791H573.563V91.2507Z" fill="#3F3D56"/>
<path d="M280.43 279.538C290.921 286.305 300.749 295.366 309.954 306.542V323.63C305.462 322.1 288.317 315.761 281.547 305.735C273.723 294.147 272.332 276.558 278.848 272.154C280.546 271.01 282.607 270.867 284.869 271.495C292.002 276.627 298.824 282.85 305.341 290.102C307.65 293.652 309.079 298.171 309.954 302.739V302.955C301.524 291.215 291.612 283.599 280.43 279.538Z" fill="#FF7C50"/>
<path d="M279.902 174.582C290.394 181.349 300.221 190.41 309.427 201.586V205.489C308.546 205.188 307.186 204.708 305.509 204.049C297.981 195.12 289.398 189.107 279.902 185.658C286.545 189.941 292.925 195.146 299.046 201.227C292.571 198.11 285.001 193.49 281.02 187.594C280.598 186.971 280.198 186.344 279.818 185.711C273.122 174.593 272.679 162.399 278.848 158.232C285.364 153.828 296.789 160.068 304.613 171.65C309.137 178.353 310.407 188.754 310.666 196.322C310.249 196.871 309.838 197.43 309.427 197.999C300.996 186.259 291.085 178.643 279.902 174.582Z" fill="#FF7C50"/>
<path d="M339.626 236.926V236.931C338.877 239.004 337.939 241.097 336.821 243.16C335.16 246.229 332.608 249.077 329.719 251.625C326.625 254.357 323.134 256.741 319.924 258.676C315.442 261.382 311.504 263.217 309.954 263.913V262.252C318.859 251.651 328.327 243.012 338.424 236.504C327.7 240.396 318.152 247.569 309.954 258.502V251.176C318.859 240.575 328.327 231.936 338.424 225.428C327.7 229.32 318.152 236.493 309.954 247.426V240.101C318.743 229.642 328.074 221.093 338.023 214.616C342.684 218.366 343.09 227.411 339.626 236.926Z" fill="#FF7C50"/>
<path d="M310.481 190.932H309.427V374.473H310.481V190.932Z" fill="#3F3D56"/>
</g>
<defs>
<clipPath id="clip0_42_2">
<rect width="339" height="369" fill="white" transform="translate(266 6.00003)"/>
</clipPath>
</defs>
</svg>
